# 3ds Max Wavefront OBJ Exporter v0.97b - (c)2007 guruware
# 创建的文件:21.04.2015 13:33:44

#
# object Box001
#

v  -0.5000 -0.5000 0.5000
v  -0.5000 -0.5000 0.2500
v  -0.2500 -0.5000 0.2500
v  -0.2500 -0.5000 0.5000
v  0.0000 -0.5000 0.2500
v  0.0000 -0.5000 0.5000
v  0.2500 -0.5000 0.2500
v  0.2500 -0.5000 0.5000
v  0.5000 -0.5000 0.2500
v  0.5000 -0.5000 0.5000
v  -0.5000 -0.5000 -0.0000
v  -0.2500 -0.5000 -0.0000
v  0.0000 -0.5000 -0.0000
v  0.2500 -0.5000 -0.0000
v  0.5000 -0.5000 -0.0000
v  -0.5000 -0.5000 -0.2500
v  -0.2500 -0.5000 -0.2500
v  0.0000 -0.5000 -0.2500
v  0.2500 -0.5000 -0.2500
v  0.5000 -0.5000 -0.2500
v  -0.5000 -0.5000 -0.5000
v  -0.2500 -0.5000 -0.5000
v  0.0000 -0.5000 -0.5000
v  0.2500 -0.5000 -0.5000
v  0.5000 -0.5000 -0.5000
v  -0.5000 0.5000 0.5000
v  -0.2500 0.5000 0.5000
v  -0.2500 0.5000 0.2500
v  -0.5000 0.5000 0.2500
v  0.0000 0.5000 0.5000
v  0.0000 0.5000 0.2500
v  0.2500 0.5000 0.5000
v  0.2500 0.5000 0.2500
v  0.5000 0.5000 0.5000
v  0.5000 0.5000 0.2500
v  -0.2500 0.5000 -0.0000
v  -0.5000 0.5000 -0.0000
v  0.0000 0.5000 -0.0000
v  0.2500 0.5000 -0.0000
v  0.5000 0.5000 -0.0000
v  -0.2500 0.5000 -0.2500
v  -0.5000 0.5000 -0.2500
v  0.0000 0.5000 -0.2500
v  0.2500 0.5000 -0.2500
v  0.5000 0.5000 -0.2500
v  -0.2500 0.5000 -0.5000
v  -0.5000 0.5000 -0.5000
v  0.0000 0.5000 -0.5000
v  0.2500 0.5000 -0.5000
v  0.5000 0.5000 -0.5000
v  -0.2500 -0.2500 0.5000
v  -0.5000 -0.2500 0.5000
v  0.0000 -0.2500 0.5000
v  0.2500 -0.2500 0.5000
v  0.5000 -0.2500 0.5000
v  -0.2500 0.0000 0.5000
v  -0.5000 0.0000 0.5000
v  0.0000 0.0000 0.5000
v  0.2500 0.0000 0.5000
v  0.5000 0.0000 0.5000
v  -0.2500 0.2500 0.5000
v  -0.5000 0.2500 0.5000
v  0.0000 0.2500 0.5000
v  0.2500 0.2500 0.5000
v  0.5000 0.2500 0.5000
v  0.5000 -0.2500 0.2500
v  0.5000 -0.2500 -0.0000
v  0.5000 -0.2500 -0.2500
v  0.5000 -0.2500 -0.5000
v  0.5000 0.0000 0.2500
v  0.5000 0.0000 -0.0000
v  0.5000 0.0000 -0.2500
v  0.5000 0.0000 -0.5000
v  0.5000 0.2500 0.2500
v  0.5000 0.2500 -0.0000
v  0.5000 0.2500 -0.2500
v  0.5000 0.2500 -0.5000
v  0.2500 -0.2500 -0.5000
v  0.0000 -0.2500 -0.5000
v  -0.2500 -0.2500 -0.5000
v  -0.5000 -0.2500 -0.5000
v  0.2500 0.0000 -0.5000
v  0.0000 0.0000 -0.5000
v  -0.2500 0.0000 -0.5000
v  -0.5000 0.0000 -0.5000
v  0.2500 0.2500 -0.5000
v  0.0000 0.2500 -0.5000
v  -0.2500 0.2500 -0.5000
v  -0.5000 0.2500 -0.5000
v  -0.5000 -0.2500 -0.2500
v  -0.5000 -0.2500 -0.0000
v  -0.5000 -0.2500 0.2500
v  -0.5000 0.0000 -0.2500
v  -0.5000 0.0000 -0.0000
v  -0.5000 0.0000 0.2500
v  -0.5000 0.2500 -0.2500
v  -0.5000 0.2500 -0.0000
v  -0.5000 0.2500 0.2500
# 98 vertices

vn 0.0000 -1.0000 -0.0000
vn 0.0000 1.0000 -0.0000
vn 0.0000 0.0000 1.0000
vn 1.0000 0.0000 -0.0000
vn 0.0000 0.0000 -1.0000
vn -1.0000 0.0000 -0.0000
# 6 vertex normals

g Box001
s 2
f 1//1 2//1 3//1 
f 3//1 4//1 1//1 
f 4//1 3//1 5//1 
f 5//1 6//1 4//1 
f 6//1 5//1 7//1 
f 7//1 8//1 6//1 
f 8//1 7//1 9//1 
f 9//1 10//1 8//1 
f 2//1 11//1 12//1 
f 12//1 3//1 2//1 
f 3//1 12//1 13//1 
f 13//1 5//1 3//1 
f 5//1 13//1 14//1 
f 14//1 7//1 5//1 
f 7//1 14//1 15//1 
f 15//1 9//1 7//1 
f 11//1 16//1 17//1 
f 17//1 12//1 11//1 
f 12//1 17//1 18//1 
f 18//1 13//1 12//1 
f 13//1 18//1 19//1 
f 19//1 14//1 13//1 
f 14//1 19//1 20//1 
f 20//1 15//1 14//1 
f 16//1 21//1 22//1 
f 22//1 17//1 16//1 
f 17//1 22//1 23//1 
f 23//1 18//1 17//1 
f 18//1 23//1 24//1 
f 24//1 19//1 18//1 
f 19//1 24//1 25//1 
f 25//1 20//1 19//1 
s 4
f 26//2 27//2 28//2 
f 28//2 29//2 26//2 
f 27//2 30//2 31//2 
f 31//2 28//2 27//2 
f 30//2 32//2 33//2 
f 33//2 31//2 30//2 
f 32//2 34//2 35//2 
f 35//2 33//2 32//2 
f 29//2 28//2 36//2 
f 36//2 37//2 29//2 
f 28//2 31//2 38//2 
f 38//2 36//2 28//2 
f 31//2 33//2 39//2 
f 39//2 38//2 31//2 
f 33//2 35//2 40//2 
f 40//2 39//2 33//2 
f 37//2 36//2 41//2 
f 41//2 42//2 37//2 
f 36//2 38//2 43//2 
f 43//2 41//2 36//2 
f 38//2 39//2 44//2 
f 44//2 43//2 38//2 
f 39//2 40//2 45//2 
f 45//2 44//2 39//2 
f 42//2 41//2 46//2 
f 46//2 47//2 42//2 
f 41//2 43//2 48//2 
f 48//2 46//2 41//2 
f 43//2 44//2 49//2 
f 49//2 48//2 43//2 
f 44//2 45//2 50//2 
f 50//2 49//2 44//2 
s 8
f 1//3 4//3 51//3 
f 51//3 52//3 1//3 
f 4//3 6//3 53//3 
f 53//3 51//3 4//3 
f 6//3 8//3 54//3 
f 54//3 53//3 6//3 
f 8//3 10//3 55//3 
f 55//3 54//3 8//3 
f 52//3 51//3 56//3 
f 56//3 57//3 52//3 
f 51//3 53//3 58//3 
f 58//3 56//3 51//3 
f 53//3 54//3 59//3 
f 59//3 58//3 53//3 
f 54//3 55//3 60//3 
f 60//3 59//3 54//3 
f 57//3 56//3 61//3 
f 61//3 62//3 57//3 
f 56//3 58//3 63//3 
f 63//3 61//3 56//3 
f 58//3 59//3 64//3 
f 64//3 63//3 58//3 
f 59//3 60//3 65//3 
f 65//3 64//3 59//3 
f 62//3 61//3 27//3 
f 27//3 26//3 62//3 
f 61//3 63//3 30//3 
f 30//3 27//3 61//3 
f 63//3 64//3 32//3 
f 32//3 30//3 63//3 
f 64//3 65//3 34//3 
f 34//3 32//3 64//3 
s 16
f 10//4 9//4 66//4 
f 66//4 55//4 10//4 
f 9//4 15//4 67//4 
f 67//4 66//4 9//4 
f 15//4 20//4 68//4 
f 68//4 67//4 15//4 
f 20//4 25//4 69//4 
f 69//4 68//4 20//4 
f 55//4 66//4 70//4 
f 70//4 60//4 55//4 
f 66//4 67//4 71//4 
f 71//4 70//4 66//4 
f 67//4 68//4 72//4 
f 72//4 71//4 67//4 
f 68//4 69//4 73//4 
f 73//4 72//4 68//4 
f 60//4 70//4 74//4 
f 74//4 65//4 60//4 
f 70//4 71//4 75//4 
f 75//4 74//4 70//4 
f 71//4 72//4 76//4 
f 76//4 75//4 71//4 
f 72//4 73//4 77//4 
f 77//4 76//4 72//4 
f 65//4 74//4 35//4 
f 35//4 34//4 65//4 
f 74//4 75//4 40//4 
f 40//4 35//4 74//4 
f 75//4 76//4 45//4 
f 45//4 40//4 75//4 
f 76//4 77//4 50//4 
f 50//4 45//4 76//4 
s 32
f 25//5 24//5 78//5 
f 78//5 69//5 25//5 
f 24//5 23//5 79//5 
f 79//5 78//5 24//5 
f 23//5 22//5 80//5 
f 80//5 79//5 23//5 
f 22//5 21//5 81//5 
f 81//5 80//5 22//5 
f 69//5 78//5 82//5 
f 82//5 73//5 69//5 
f 78//5 79//5 83//5 
f 83//5 82//5 78//5 
f 79//5 80//5 84//5 
f 84//5 83//5 79//5 
f 80//5 81//5 85//5 
f 85//5 84//5 80//5 
f 73//5 82//5 86//5 
f 86//5 77//5 73//5 
f 82//5 83//5 87//5 
f 87//5 86//5 82//5 
f 83//5 84//5 88//5 
f 88//5 87//5 83//5 
f 84//5 85//5 89//5 
f 89//5 88//5 84//5 
f 77//5 86//5 49//5 
f 49//5 50//5 77//5 
f 86//5 87//5 48//5 
f 48//5 49//5 86//5 
f 87//5 88//5 46//5 
f 46//5 48//5 87//5 
f 88//5 89//5 47//5 
f 47//5 46//5 88//5 
s 64
f 21//6 16//6 90//6 
f 90//6 81//6 21//6 
f 16//6 11//6 91//6 
f 91//6 90//6 16//6 
f 11//6 2//6 92//6 
f 92//6 91//6 11//6 
f 2//6 1//6 52//6 
f 52//6 92//6 2//6 
f 81//6 90//6 93//6 
f 93//6 85//6 81//6 
f 90//6 91//6 94//6 
f 94//6 93//6 90//6 
f 91//6 92//6 95//6 
f 95//6 94//6 91//6 
f 92//6 52//6 57//6 
f 57//6 95//6 92//6 
f 85//6 93//6 96//6 
f 96//6 89//6 85//6 
f 93//6 94//6 97//6 
f 97//6 96//6 93//6 
f 94//6 95//6 98//6 
f 98//6 97//6 94//6 
f 95//6 57//6 62//6 
f 62//6 98//6 95//6 
f 89//6 96//6 42//6 
f 42//6 47//6 89//6 
f 96//6 97//6 37//6 
f 37//6 42//6 96//6 
f 97//6 98//6 29//6 
f 29//6 37//6 97//6 
f 98//6 62//6 26//6 
f 26//6 29//6 98//6 
# 192 faces

