# Max2Obj Version 4.0 Mar 10th, 2001
#
mtllib slope.mtl
g object
v  -0.52312 0.00000 0.15693
v  0.45960 0.00000 0.15693
v  -0.52312 0.00970 0.15693
v  0.45960 0.25742 0.15693
v  -0.52312 0.00970 -0.16319
v  0.45960 0.25742 -0.16319
v  -0.52312 0.00000 -0.16319
v  0.45960 0.00000 -0.16319
# 8 vertices
vt 0.00000 0.00000
vt 1.00000 0.00000
vt 1.00000 1.00000
vt 0.00000 1.00000
vt 1.00000 2.00000
vt 0.00000 2.00000
vt 1.00000 3.00000
vt 0.00000 3.00000
vt 1.00000 4.00000
vt 0.00000 4.00000
vt 2.00000 0.00000
vt 2.00000 1.00000
vt -1.00000 0.00000
vt -1.00000 1.00000
# 14 texture verticies
vn 0.00000 0.00000 1.00000
vn 0.00000 1.00000 0.00000
vn 0.00000 0.00000 -1.00000
vn 0.00000 -1.00000 0.00000
vn 1.00000 0.00000 0.00000
vn -1.00000 0.00000 0.00000
# 6 normals
usemtl 01_-_Default
f  1/2/1 2/3/1 4/2/1 3/1/1
f  3/1/2 4/2/2 6/3/2 5/4/2
f  5/4/3 6/3/3 8/4/3 7/1/3
f  7/1/4 8/4/4 2/3/4 1/2/4
f  2/3/5 8/4/5 6/3/5 4/2/5
f  7/1/6 1/2/6 3/1/6 5/4/6

