# 3ds Max Wavefront OBJ Exporter v0.97b - (c)2007 guruware
# 创建的文件:11.08.2016 18:09:41

mtllib slope2.mtl

#
# object object
#

v  0.4596 0.0000 0.1569
v  0.4596 0.2574 0.1569
v  -0.5231 0.0097 0.1569
v  -0.5231 0.0000 0.1569
v  0.4596 0.2574 -0.1632
v  -0.5231 0.0097 -0.1632
v  0.4596 0.0000 -0.1632
v  -0.5231 0.0000 -0.1632
# 8 vertices

vn 0.0000 0.0000 1.0000
vn 0.0000 1.0000 -0.0000
vn 0.0000 0.0000 -1.0000
vn 0.0000 -1.0000 -0.0000
vn 1.0000 0.0000 -0.0000
vn -1.0000 0.0000 -0.0000
# 6 vertex normals

vt 1.0000 1.0000 0.0000
vt 1.0000 0.0000 0.0000
vt 0.0000 0.0000 0.0000
vt 0.0000 1.0000 0.0000
# 4 texture coords

g object
usemtl wire_224198087
s 1
f 1/1/1 2/2/1 3/3/1 4/2/1 
f 2/2/2 5/1/2 6/4/2 3/3/2 
f 6/4/3 5/1/3 7/4/3 8/3/3 
f 7/4/4 1/1/4 4/2/4 8/3/4 
f 7/4/5 5/1/5 2/2/5 1/1/5 
f 4/2/6 3/3/6 6/4/6 8/3/6 
# 6 polygons

